REM DIRINDEX 1\2\4,1\2\5,1\2\6,1\3\7,1\3\8
REM DIRNAME cjc128,folder01,folder02,folder03,folder04,folder05,folder06,folder07
TITLE ""
FILE "039_Proficiency Test04.mp3" MP3
  TRACK 01 AUDIO
    TITLE "0:"
    INDEX 01 00:00:00
  TRACK 02 AUDIO
    TITLE "8:cjc128_3941"
    INDEX 01 00:00:23
  TRACK 03 AUDIO
    TITLE "0:"
    INDEX 01 00:02:36
  TRACK 04 AUDIO
    TITLE "8:cjc128_3942"
    INDEX 01 00:02:73
  TRACK 05 AUDIO
    TITLE "0:"
    INDEX 01 00:05:07
  TRACK 06 AUDIO
    TITLE "7:cjc128_3943"
    INDEX 01 00:05:50
  TRACK 07 AUDIO
    TITLE "0:"
    INDEX 01 00:09:51
  TRACK 08 AUDIO
    TITLE "8:cjc128_3944"
    INDEX 01 00:14:02
  TRACK 09 AUDIO
    TITLE "0:"
    INDEX 01 00:16:06
  TRACK 10 AUDIO
    TITLE "7:cjc128_3945"
    INDEX 01 00:16:65
  TRACK 11 AUDIO
    TITLE "0:"
    INDEX 01 00:21:27
  TRACK 12 AUDIO
    TITLE "8:cjc128_3946"
    INDEX 01 00:26:42
  TRACK 13 AUDIO
    TITLE "0:"
    INDEX 01 00:28:39
  TRACK 14 AUDIO
    TITLE "7:cjc128_3947"
    INDEX 01 00:29:25
  TRACK 15 AUDIO
    TITLE "0:"
    INDEX 01 00:32:60
  TRACK 16 AUDIO
    TITLE "8:cjc128_3948"
    INDEX 01 00:36:50
  TRACK 17 AUDIO
    TITLE "0:"
    INDEX 01 00:38:49
  TRACK 18 AUDIO
    TITLE "7:cjc128_3949"
    INDEX 01 00:39:29
  TRACK 19 AUDIO
    TITLE "0:"
    INDEX 01 00:44:12
  TRACK 20 AUDIO
    TITLE "8:cjc128_3950"
    INDEX 01 00:49:25
  TRACK 21 AUDIO
    TITLE "0:"
    INDEX 01 00:51:36
  TRACK 22 AUDIO
    TITLE "7:cjc128_3951"
    INDEX 01 00:52:14
  TRACK 23 AUDIO
    TITLE "0:"
    INDEX 01 00:56:25
